<svg width="20" height="20" viewBox="0 0 20 20" fill="none" xmlns="http://www.w3.org/2000/svg">
<g clip-path="url(#clip0_1044_24)">
<path d="M9.97954 1.80132C12.6449 1.80132 12.9578 1.8132 14.0112 1.86072C14.9855 1.90429 15.5122 2.06666 15.8647 2.20528C16.332 2.38745 16.6647 2.60132 17.0132 2.94983C17.3617 3.29835 17.5795 3.63102 17.7578 4.09835C17.8924 4.45082 18.0587 4.97755 18.1023 5.95181C18.1498 7.00528 18.1617 7.31815 18.1617 9.98349C18.1617 12.6488 18.1498 12.9617 18.1023 14.0152C18.0587 14.9894 17.8964 15.5162 17.7578 15.8686C17.5756 16.336 17.3617 16.6686 17.0132 17.0172C16.6647 17.3657 16.332 17.5835 15.8647 17.7617C15.5122 17.8964 14.9855 18.0627 14.0112 18.1063C12.9578 18.1538 12.6449 18.1657 9.97954 18.1657C7.31419 18.1657 7.00132 18.1538 5.94786 18.1063C4.9736 18.0627 4.44687 17.9003 4.09439 17.7617C3.62707 17.5795 3.29439 17.3657 2.94588 17.0172C2.59736 16.6686 2.37954 16.336 2.20132 15.8686C2.06667 15.5162 1.90033 14.9894 1.85677 14.0152C1.80924 12.9617 1.79736 12.6488 1.79736 9.98349C1.79736 7.31815 1.80924 7.00528 1.85677 5.95181C1.90033 4.97755 2.06271 4.45082 2.20132 4.09835C2.3835 3.63102 2.59736 3.29835 2.94588 2.94983C3.29439 2.60132 3.62707 2.38349 4.09439 2.20528C4.44687 2.07062 4.9736 1.90429 5.94786 1.86072C7.00132 1.80924 7.31419 1.80132 9.97954 1.80132ZM9.97954 0.0032959C7.27063 0.0032959 6.93004 0.0151771 5.86469 0.0627018C4.8033 0.110227 4.07855 0.280524 3.44489 0.526068C2.78746 0.779534 2.23301 1.12409 1.67855 1.67854C1.1241 2.233 0.783502 2.79141 0.526076 3.44488C0.280531 4.07854 0.110234 4.8033 0.0627095 5.86864C0.0151847 6.93003 0.00330353 7.27062 0.00330353 9.97953C0.00330353 12.6884 0.0151847 13.029 0.0627095 14.0944C0.110234 15.1558 0.280531 15.8805 0.526076 16.5182C0.779541 17.1756 1.1241 17.73 1.67855 18.2845C2.23301 18.8389 2.79142 19.1795 3.44489 19.437C4.07855 19.6825 4.8033 19.8528 5.86865 19.9003C6.934 19.9479 7.27063 19.9597 9.9835 19.9597C12.6964 19.9597 13.033 19.9479 14.0984 19.9003C15.1597 19.8528 15.8845 19.6825 16.5221 19.437C17.1795 19.1835 17.734 18.8389 18.2885 18.2845C18.8429 17.73 19.1835 17.1716 19.4409 16.5182C19.6865 15.8845 19.8568 15.1597 19.9043 14.0944C19.9518 13.029 19.9637 12.6924 19.9637 9.97953C19.9637 7.26666 19.9518 6.93003 19.9043 5.86468C19.8568 4.8033 19.6865 4.07854 19.4409 3.44092C19.1875 2.78349 18.8429 2.22904 18.2885 1.67458C17.734 1.12013 17.1756 0.779534 16.5221 0.522108C15.8885 0.276563 15.1637 0.106266 14.0984 0.0587415C13.029 0.0151771 12.6884 0.0032959 9.97954 0.0032959Z" fill="#1F2937"/>
<path d="M9.97953 4.85486C7.1518 4.85486 4.85477 7.14793 4.85477 9.97961C4.85477 12.8113 7.1518 15.1044 9.97953 15.1044C12.8072 15.1044 15.1043 12.8073 15.1043 9.97961C15.1043 7.15189 12.8072 4.85486 9.97953 4.85486ZM9.97953 13.3063C8.1419 13.3063 6.65279 11.8172 6.65279 9.97961C6.65279 8.14199 8.1419 6.65288 9.97953 6.65288C11.8171 6.65288 13.3063 8.14199 13.3063 9.97961C13.3063 11.8172 11.8171 13.3063 9.97953 13.3063Z" fill="#1F2937"/>
<path d="M15.3063 5.84899C15.9668 5.84899 16.5023 5.3135 16.5023 4.65295C16.5023 3.99239 15.9668 3.45691 15.3063 3.45691C14.6457 3.45691 14.1102 3.99239 14.1102 4.65295C14.1102 5.3135 14.6457 5.84899 15.3063 5.84899Z" fill="#1F2937"/>
</g>
<defs>
<clipPath id="clip0_1044_24">
<rect width="20" height="20" fill="white"/>
</clipPath>
</defs>
</svg>
