<svg width="87" height="1728" viewBox="0 0 87 1728" fill="none" xmlns="http://www.w3.org/2000/svg">
<g clip-path="url(#clip0_1109_28363)">
<path d="M79.392 71.9929H7.6355V143.749H79.392V71.9929Z" fill="#FF6600"/>
<path d="M79.392 716.993H7.6355V788.749H79.392V716.993Z" fill="#FF6600"/>
<path d="M79.392 1361.99H7.6355V1433.75H79.392V1361.99Z" fill="#FF6600"/>
<path fill-rule="evenodd" clip-rule="evenodd" d="M7.6355 89.932C12.3932 89.932 16.9561 88.042 20.3204 84.6778C23.6846 81.3136 25.5746 76.7507 25.5746 71.9929H7.6355V89.932Z" fill="black"/>
<path fill-rule="evenodd" clip-rule="evenodd" d="M7.6355 734.932C12.3932 734.932 16.9561 733.042 20.3204 729.678C23.6846 726.314 25.5746 721.751 25.5746 716.993H7.6355V734.932Z" fill="black"/>
<path fill-rule="evenodd" clip-rule="evenodd" d="M7.6355 1379.93C12.3932 1379.93 16.9561 1378.04 20.3204 1374.68C23.6846 1371.31 25.5746 1366.75 25.5746 1361.99H7.6355V1379.93Z" fill="black"/>
<path fill-rule="evenodd" clip-rule="evenodd" d="M79.392 71.9931V0.236572H7.6355C7.6355 19.2676 15.1955 37.5191 28.6525 50.9761C42.1094 64.433 60.361 71.9931 79.392 71.9931Z" fill="#E9941A"/>
<path fill-rule="evenodd" clip-rule="evenodd" d="M79.392 716.993V645.237H7.6355C7.6355 664.268 15.1955 682.519 28.6525 695.976C42.1094 709.433 60.361 716.993 79.392 716.993Z" fill="#E9941A"/>
<path fill-rule="evenodd" clip-rule="evenodd" d="M79.392 1361.99V1290.24H7.6355C7.6355 1309.27 15.1955 1327.52 28.6525 1340.98C42.1094 1354.43 60.361 1361.99 79.392 1361.99Z" fill="#E9941A"/>
<mask id="mask0_1109_28363" style="mask-type:luminance" maskUnits="userSpaceOnUse" x="7" y="0" width="73" height="72">
<path d="M79.389 71.9926V0.236084H7.63257C7.63257 19.2671 15.1926 37.5186 28.6496 50.9756C42.1065 64.4325 60.358 71.9926 79.389 71.9926Z" fill="white"/>
</mask>
<g mask="url(#mask0_1109_28363)">
<path d="M117.444 38.2929C138.461 17.2759 138.461 -16.7993 117.444 -37.8163C96.4272 -58.8333 62.3519 -58.8333 41.3349 -37.8163C20.3179 -16.7993 20.3179 17.2759 41.3349 38.2929C62.3519 59.3099 96.4271 59.3099 117.444 38.2929Z" fill="white"/>
<path d="M79.3914 36.1156C99.2064 36.1156 115.27 20.0524 115.27 0.23737C115.27 -19.5776 99.2064 -35.6409 79.3914 -35.6409C59.5764 -35.6409 43.5132 -19.5776 43.5132 0.23737C43.5132 20.0524 59.5764 36.1156 79.3914 36.1156Z" fill="#FF6600"/>
<path d="M79.3904 18.1761C89.2979 18.1761 97.3295 10.1445 97.3295 0.236969C97.3295 -9.67053 89.2979 -17.7021 79.3904 -17.7021C69.4829 -17.7021 61.4513 -9.67053 61.4513 0.236969C61.4513 10.1445 69.4829 18.1761 79.3904 18.1761Z" fill="#E9941A"/>
</g>
<mask id="mask1_1109_28363" style="mask-type:luminance" maskUnits="userSpaceOnUse" x="7" y="645" width="73" height="72">
<path d="M79.389 716.993V645.236H7.63257C7.63257 664.267 15.1926 682.519 28.6496 695.976C42.1065 709.433 60.358 716.993 79.389 716.993Z" fill="white"/>
</mask>
<g mask="url(#mask1_1109_28363)">
<path d="M117.444 683.293C138.461 662.276 138.461 628.201 117.444 607.184C96.4272 586.167 62.3519 586.167 41.3349 607.184C20.3179 628.201 20.3179 662.276 41.3349 683.293C62.3519 704.31 96.4271 704.31 117.444 683.293Z" fill="white"/>
<path d="M79.3914 681.116C99.2064 681.116 115.27 665.052 115.27 645.237C115.27 625.422 99.2064 609.359 79.3914 609.359C59.5764 609.359 43.5132 625.422 43.5132 645.237C43.5132 665.052 59.5764 681.116 79.3914 681.116Z" fill="#FF6600"/>
<path d="M79.3904 663.176C89.2979 663.176 97.3295 655.144 97.3295 645.237C97.3295 635.329 89.2979 627.298 79.3904 627.298C69.4829 627.298 61.4513 635.329 61.4513 645.237C61.4513 655.144 69.4829 663.176 79.3904 663.176Z" fill="#E9941A"/>
</g>
<mask id="mask2_1109_28363" style="mask-type:luminance" maskUnits="userSpaceOnUse" x="7" y="1290" width="73" height="72">
<path d="M79.389 1361.99V1290.24H7.63257C7.63257 1309.27 15.1926 1327.52 28.6496 1340.98C42.1065 1354.43 60.358 1361.99 79.389 1361.99Z" fill="white"/>
</mask>
<g mask="url(#mask2_1109_28363)">
<path d="M117.444 1328.29C138.461 1307.28 138.461 1273.2 117.444 1252.18C96.4272 1231.17 62.3519 1231.17 41.3349 1252.18C20.3179 1273.2 20.3179 1307.28 41.3349 1328.29C62.3519 1349.31 96.4271 1349.31 117.444 1328.29Z" fill="white"/>
<path d="M79.3914 1326.12C99.2064 1326.12 115.27 1310.05 115.27 1290.24C115.27 1270.42 99.2064 1254.36 79.3914 1254.36C59.5764 1254.36 43.5132 1270.42 43.5132 1290.24C43.5132 1310.05 59.5764 1326.12 79.3914 1326.12Z" fill="#FF6600"/>
<path d="M79.3904 1308.18C89.2979 1308.18 97.3295 1300.14 97.3295 1290.24C97.3295 1280.33 89.2979 1272.3 79.3904 1272.3C69.4829 1272.3 61.4513 1280.33 61.4513 1290.24C61.4513 1300.14 69.4829 1308.18 79.3904 1308.18Z" fill="#E9941A"/>
</g>
<path d="M79.392 143.761H7.6355V215.518H79.392V143.761Z" fill="#FF6600"/>
<path d="M79.392 788.761H7.6355V860.518H79.392V788.761Z" fill="#FF6600"/>
<path d="M79.392 1433.76H7.6355V1505.52H79.392V1433.76Z" fill="#FF6600"/>
<path d="M43.5129 179.639H25.5737V197.579H43.5129V179.639Z" fill="#082B4F"/>
<path d="M43.5129 824.639H25.5737V842.579H43.5129V824.639Z" fill="#082B4F"/>
<path d="M43.5129 1469.64H25.5737V1487.58H43.5129V1469.64Z" fill="#082B4F"/>
<path d="M61.4538 179.639H43.5146V197.579H61.4538V179.639Z" fill="white"/>
<path d="M61.4538 824.639H43.5146V842.579H61.4538V824.639Z" fill="white"/>
<path d="M61.4538 1469.64H43.5146V1487.58H61.4538V1469.64Z" fill="white"/>
<path d="M43.5129 161.7H25.5737V179.64H43.5129V161.7Z" fill="white"/>
<path d="M43.5129 806.7H25.5737V824.64H43.5129V806.7Z" fill="white"/>
<path d="M43.5129 1451.7H25.5737V1469.64H43.5129V1451.7Z" fill="white"/>
<path d="M61.4538 161.7H43.5146V179.64H61.4538V161.7Z" fill="#082B4F"/>
<path d="M61.4538 806.7H43.5146V824.64H61.4538V806.7Z" fill="#082B4F"/>
<path d="M61.4538 1451.7H43.5146V1469.64H61.4538V1451.7Z" fill="#082B4F"/>
<path d="M79.392 502.065H7.6355V573.821H79.392V502.065Z" fill="#FF6600"/>
<path d="M79.392 1147.06H7.6355V1218.82H79.392V1147.06Z" fill="#FF6600"/>
<path fill-rule="evenodd" clip-rule="evenodd" d="M7.6355 520.05C12.3932 520.05 16.9561 518.16 20.3204 514.796C23.6846 511.432 25.5746 506.869 25.5746 502.111H7.6355V520.05Z" fill="black"/>
<path fill-rule="evenodd" clip-rule="evenodd" d="M7.6355 1165.05C12.3932 1165.05 16.9561 1163.16 20.3204 1159.8C23.6846 1156.43 25.5746 1151.87 25.5746 1147.11H7.6355V1165.05Z" fill="black"/>
<path fill-rule="evenodd" clip-rule="evenodd" d="M79.7189 502.064V430.308H7.9624C7.9624 449.339 15.5224 467.59 28.9794 481.047C42.4363 494.504 60.6879 502.064 79.7189 502.064Z" fill="#E9941A"/>
<path fill-rule="evenodd" clip-rule="evenodd" d="M79.3828 1147.06V1075.31H7.94702C7.94702 1094.34 15.4733 1112.59 28.8701 1126.05C42.2669 1139.5 60.4368 1147.06 79.3828 1147.06Z" fill="#E9941A"/>
<mask id="mask3_1109_28363" style="mask-type:luminance" maskUnits="userSpaceOnUse" x="7" y="430" width="73" height="73">
<path d="M79.716 502.064V430.308H7.95947C7.95947 449.339 15.5195 467.59 28.9765 481.047C42.4334 494.504 60.6849 502.064 79.716 502.064Z" fill="white"/>
</mask>
<g mask="url(#mask3_1109_28363)">
<path d="M92.1551 482.685C121.072 475.812 138.942 446.798 132.069 417.881C125.196 388.964 96.1828 371.094 67.2658 377.967C38.3489 384.84 20.4788 413.854 27.3518 442.771C34.2247 471.688 63.2382 489.558 92.1551 482.685Z" fill="white"/>
<path d="M79.7165 466.187C99.5315 466.187 115.595 450.123 115.595 430.308C115.595 410.493 99.5315 394.43 79.7165 394.43C59.9015 394.43 43.8383 410.493 43.8383 430.308C43.8383 450.123 59.9015 466.187 79.7165 466.187Z" fill="#FF6600"/>
<path d="M79.7183 448.247C89.6258 448.247 97.6574 440.215 97.6574 430.308C97.6574 420.4 89.6258 412.369 79.7183 412.369C69.8108 412.369 61.7792 420.4 61.7792 430.308C61.7792 440.215 69.8108 448.247 79.7183 448.247Z" fill="#E9941A"/>
</g>
<mask id="mask4_1109_28363" style="mask-type:luminance" maskUnits="userSpaceOnUse" x="7" y="1075" width="73" height="73">
<path d="M79.7035 1147.06V1075.31H7.94702C7.94702 1094.34 15.5071 1112.59 28.964 1126.05C42.421 1139.5 60.6725 1147.06 79.7035 1147.06Z" fill="white"/>
</mask>
<g mask="url(#mask4_1109_28363)">
<path d="M92.0486 1127.68C120.933 1120.81 138.783 1091.8 131.918 1062.88C125.053 1033.96 96.0717 1016.09 67.1871 1022.97C38.3025 1029.84 20.4523 1058.85 27.3176 1087.77C34.1829 1116.69 63.164 1134.56 92.0486 1127.68Z" fill="white"/>
<path d="M79.6239 1111.19C99.4168 1111.19 115.462 1095.12 115.462 1075.31C115.462 1055.49 99.4168 1039.43 79.6239 1039.43C59.831 1039.43 43.7858 1055.49 43.7858 1075.31C43.7858 1095.12 59.831 1111.19 79.6239 1111.19Z" fill="#FF6600"/>
<path d="M79.6256 1093.25C89.522 1093.25 97.5447 1085.22 97.5447 1075.31C97.5447 1065.4 89.522 1057.37 79.6256 1057.37C69.7292 1057.37 61.7065 1065.4 61.7065 1075.31C61.7065 1085.22 69.7292 1093.25 79.6256 1093.25Z" fill="#E9941A"/>
</g>
<path d="M79.3891 215.273H7.63257V287.029H79.3891V215.273Z" fill="#080B4F"/>
<path d="M79.3912 860.273H7.63464V932.029H79.3912V860.273Z" fill="#080B4F"/>
<path d="M79.8667 1505.27H8.11023V1577.03H79.8667V1505.27Z" fill="#080B4F"/>
<path fill-rule="evenodd" clip-rule="evenodd" d="M79.3891 215.273C79.3891 224.788 75.6091 233.914 68.8806 240.642C62.1521 247.371 53.0263 251.151 43.5108 251.151C33.9953 251.151 24.8695 247.371 18.1411 240.642C11.4126 233.914 7.63257 224.788 7.63257 215.273H79.3891Z" fill="#FF6600"/>
<path fill-rule="evenodd" clip-rule="evenodd" d="M79.3912 860.273C79.3912 869.788 75.6111 878.914 68.8827 885.642C62.1542 892.371 53.0284 896.151 43.5129 896.151C33.9974 896.151 24.8716 892.371 18.1431 885.642C11.4147 878.914 7.63464 869.788 7.63464 860.273H79.3912Z" fill="#FF6600"/>
<path fill-rule="evenodd" clip-rule="evenodd" d="M79.3798 1505.27C79.3798 1514.79 75.5998 1523.91 68.8713 1530.64C62.1428 1537.37 53.0171 1541.15 43.5015 1541.15C33.986 1541.15 24.8603 1537.37 18.1318 1530.64C11.4033 1523.91 7.62329 1514.79 7.62329 1505.27H79.3798Z" fill="#FF6600"/>
<path d="M43.5103 269.09C48.4673 269.09 52.4857 265.071 52.4857 260.114C52.4857 255.157 48.4673 251.139 43.5103 251.139C38.5533 251.139 34.5349 255.157 34.5349 260.114C34.5349 265.071 38.5533 269.09 43.5103 269.09Z" fill="white"/>
<path d="M43.5124 914.09C48.4694 914.09 52.4878 910.071 52.4878 905.114C52.4878 900.157 48.4694 896.139 43.5124 896.139C38.5554 896.139 34.537 900.157 34.537 905.114C34.537 910.071 38.5554 914.09 43.5124 914.09Z" fill="white"/>
<path d="M43.988 1559.09C48.9449 1559.09 52.9634 1555.07 52.9634 1550.11C52.9634 1545.16 48.9449 1541.14 43.988 1541.14C39.031 1541.14 35.0126 1545.16 35.0126 1550.11C35.0126 1555.07 39.031 1559.09 43.988 1559.09Z" fill="white"/>
<path fill-rule="evenodd" clip-rule="evenodd" d="M7.94702 322.907H43.8252V323.024C43.7912 332.518 39.9962 341.61 33.2714 348.311C26.5466 355.012 17.4403 358.774 7.94702 358.774V322.907Z" fill="#E9941A"/>
<path fill-rule="evenodd" clip-rule="evenodd" d="M7.94702 967.907H43.8252V968.024C43.7912 977.518 39.9962 986.61 33.2714 993.311C26.5466 1000.01 17.4403 1003.77 7.94702 1003.77V967.907Z" fill="#E9941A"/>
<path fill-rule="evenodd" clip-rule="evenodd" d="M7.94702 1612.91H43.8252V1613.02C43.7912 1622.52 39.9962 1631.61 33.2714 1638.31C26.5466 1645.01 17.4403 1648.77 7.94702 1648.77V1612.91Z" fill="#E9941A"/>
<path fill-rule="evenodd" clip-rule="evenodd" d="M79.7042 358.774C70.2089 358.774 61.1008 355.01 54.3757 348.306C47.6505 341.603 43.8569 332.507 43.8259 323.012V322.895H79.7042V358.774Z" fill="black"/>
<path fill-rule="evenodd" clip-rule="evenodd" d="M79.7042 1003.77C70.2089 1003.77 61.1008 1000.01 54.3757 993.306C47.6505 986.603 43.8569 977.507 43.8259 968.012V967.895H79.7042V1003.77Z" fill="black"/>
<path fill-rule="evenodd" clip-rule="evenodd" d="M79.7042 1648.77C70.2089 1648.77 61.1008 1645.01 54.3757 1638.31C47.6505 1631.6 43.8569 1622.51 43.8259 1613.01V1612.9H79.7042V1648.77Z" fill="black"/>
<path fill-rule="evenodd" clip-rule="evenodd" d="M79.7042 322.907H43.8259V322.79C43.8536 313.323 47.6238 304.25 54.3143 297.55C61.0047 290.851 70.0727 287.069 79.5406 287.029H79.7042V322.907Z" fill="#E9941A"/>
<path fill-rule="evenodd" clip-rule="evenodd" d="M79.7042 967.907H43.8259V967.79C43.8536 958.323 47.6238 949.25 54.3143 942.55C61.0047 935.851 70.0727 932.069 79.5406 932.029H79.7042V967.907Z" fill="#E9941A"/>
<path fill-rule="evenodd" clip-rule="evenodd" d="M79.7042 1612.91H43.8259V1612.79C43.8536 1603.32 47.6238 1594.25 54.3143 1587.55C61.0047 1580.85 70.0727 1577.07 79.5406 1577.03H79.7042V1612.91Z" fill="#E9941A"/>
<path fill-rule="evenodd" clip-rule="evenodd" d="M8.11062 287.029C17.5785 287.069 26.6465 290.851 33.3369 297.55C40.0274 304.25 43.7976 313.323 43.8252 322.79V322.907H7.94702V287.029H8.11062Z" fill="black"/>
<path fill-rule="evenodd" clip-rule="evenodd" d="M8.11062 932.029C17.5785 932.069 26.6465 935.851 33.3369 942.55C40.0274 949.25 43.7976 958.323 43.8252 967.79V967.907H7.94702V932.029H8.11062Z" fill="black"/>
<path fill-rule="evenodd" clip-rule="evenodd" d="M8.11062 1577.03C17.5785 1577.07 26.6465 1580.85 33.3369 1587.55C40.0274 1594.25 43.7976 1603.32 43.8252 1612.79V1612.91H7.94702V1577.03H8.11062Z" fill="black"/>
<path d="M79.392 573.821H7.6355V645.578H79.392V573.821Z" fill="#FF6600"/>
<path d="M79.392 1218.82H7.6355V1290.58H79.392V1218.82Z" fill="#FF6600"/>
<path d="M43.5129 609.711H25.5737V627.65H43.5129V609.711Z" fill="#082B4F"/>
<path d="M43.5129 1254.71H25.5737V1272.65H43.5129V1254.71Z" fill="#082B4F"/>
<path d="M61.4538 609.711H43.5146V627.65H61.4538V609.711Z" fill="white"/>
<path d="M61.4538 1254.71H43.5146V1272.65H61.4538V1254.71Z" fill="white"/>
<path d="M43.5129 591.76H25.5737V609.699H43.5129V591.76Z" fill="white"/>
<path d="M43.5129 1236.76H25.5737V1254.7H43.5129V1236.76Z" fill="white"/>
<path d="M61.4538 591.76H43.5146V609.699H61.4538V591.76Z" fill="#082B4F"/>
<path d="M61.4538 1236.76H43.5146V1254.7H61.4538V1236.76Z" fill="#082B4F"/>
<path d="M79.7035 358.785H7.94702V430.542H79.7035V358.785Z" fill="#E9941A"/>
<path d="M79.7035 1003.79H7.94702V1075.54H79.7035V1003.79Z" fill="#E9941A"/>
<path d="M79.7035 1648.79H7.94702V1720.54H79.7035V1648.79Z" fill="#E9941A"/>
<path d="M52.0898 429.601C71.3701 425.029 83.2937 405.693 78.7218 386.412C74.1499 367.132 54.8138 355.208 35.5335 359.78C16.2531 364.352 4.32954 383.688 8.90144 402.969C13.4733 422.249 32.8094 434.172 52.0898 429.601Z" fill="#080B4F"/>
<path d="M52.0898 1074.6C71.3701 1070.03 83.2937 1050.69 78.7218 1031.41C74.1499 1012.13 54.8138 1000.21 35.5335 1004.78C16.2531 1009.35 4.32954 1028.69 8.90144 1047.97C13.4733 1067.25 32.8094 1079.17 52.0898 1074.6Z" fill="#080B4F"/>
<path d="M52.0898 1719.6C71.3701 1715.03 83.2937 1695.69 78.7218 1676.41C74.1499 1657.13 54.8138 1645.21 35.5335 1649.78C16.2531 1654.35 4.32954 1673.69 8.90144 1692.97C13.4733 1712.25 32.8094 1724.17 52.0898 1719.6Z" fill="#080B4F"/>
<path d="M45.6022 412.502C55.4617 411.528 62.6651 402.746 61.6914 392.887C60.7177 383.027 51.9357 375.824 42.0761 376.797C32.2166 377.771 25.0132 386.553 25.9869 396.413C26.9606 406.272 35.7426 413.476 45.6022 412.502Z" fill="white"/>
<path d="M45.6022 1057.5C55.4617 1056.53 62.6651 1047.75 61.6914 1037.89C60.7177 1028.03 51.9357 1020.82 42.0761 1021.8C32.2166 1022.77 25.0132 1031.55 25.9869 1041.41C26.9606 1051.27 35.7426 1058.48 45.6022 1057.5Z" fill="white"/>
<path d="M45.6022 1702.5C55.4617 1701.53 62.6651 1692.75 61.6914 1682.89C60.7177 1673.03 51.9357 1665.82 42.0761 1666.8C32.2166 1667.77 25.0132 1676.55 25.9869 1686.41C26.9606 1696.27 35.7426 1703.48 45.6022 1702.5Z" fill="white"/>
<path fill-rule="evenodd" clip-rule="evenodd" d="M43.8244 389.299C45.5891 386.073 47.3304 384.461 50.8364 384.461C52.6181 384.4 54.352 385.043 55.664 386.25C56.9759 387.457 57.7605 389.131 57.8485 390.912C57.8485 397.363 50.8364 403.767 43.7426 410.265C36.7306 403.814 29.6367 397.409 29.6367 390.912C29.7217 389.13 30.5054 387.454 31.818 386.246C33.1306 385.039 34.8663 384.397 36.6488 384.461C40.295 384.484 42.0597 386.073 43.8244 389.299Z" fill="#FF6600"/>
<path fill-rule="evenodd" clip-rule="evenodd" d="M43.8244 1034.3C45.5891 1031.07 47.3304 1029.46 50.8364 1029.46C52.6181 1029.4 54.352 1030.04 55.664 1031.25C56.9759 1032.46 57.7605 1034.13 57.8485 1035.91C57.8485 1042.36 50.8364 1048.77 43.7426 1055.26C36.7306 1048.81 29.6367 1042.41 29.6367 1035.91C29.7217 1034.13 30.5054 1032.45 31.818 1031.25C33.1306 1030.04 34.8663 1029.4 36.6488 1029.46C40.295 1029.48 42.0597 1031.07 43.8244 1034.3Z" fill="#FF6600"/>
<path fill-rule="evenodd" clip-rule="evenodd" d="M43.8244 1679.3C45.5891 1676.07 47.3304 1674.46 50.8364 1674.46C52.6181 1674.4 54.352 1675.04 55.664 1676.25C56.9759 1677.46 57.7605 1679.13 57.8485 1680.91C57.8485 1687.36 50.8364 1693.77 43.7426 1700.26C36.7306 1693.81 29.6367 1687.41 29.6367 1680.91C29.7217 1679.13 30.5054 1677.45 31.818 1676.25C33.1306 1675.04 34.8663 1674.4 36.6488 1674.46C40.295 1674.48 42.0597 1676.07 43.8244 1679.3Z" fill="#FF6600"/>
<path fill-rule="evenodd" clip-rule="evenodd" d="M79.7162 72.2361L79.392 71.9929L30.5532 108.572L7.6355 125.728V125.892C7.65396 130.622 9.54128 135.154 12.8862 138.499C16.2311 141.844 20.7624 143.731 25.4928 143.749H25.6564L42.9294 130.391L79.392 102.18L79.6232 102.358V72.2361H79.7162Z" fill="white"/>
<path fill-rule="evenodd" clip-rule="evenodd" d="M79.7162 717.236L79.392 716.993L30.5532 753.572L7.6355 770.728V770.892C7.65396 775.622 9.54128 780.154 12.8862 783.499C16.2311 786.844 20.7624 788.731 25.4928 788.749H25.6564L42.9294 775.391L79.392 747.18L79.6232 747.358V717.236H79.7162Z" fill="white"/>
<path fill-rule="evenodd" clip-rule="evenodd" d="M79.7162 1362.24L79.392 1361.99L30.5532 1398.57L7.6355 1415.73V1415.89C7.65396 1420.62 9.54128 1425.15 12.8862 1428.5C16.2311 1431.84 20.7624 1433.73 25.4928 1433.75H25.6564L42.9294 1420.39L79.392 1392.18L79.6232 1392.36V1362.24H79.7162Z" fill="white"/>
<path fill-rule="evenodd" clip-rule="evenodd" d="M79.6368 502.236L79.392 502.052L30.5532 538.632L7.6355 555.788V555.952C7.66006 560.68 9.54933 565.208 12.8929 568.552C16.2365 571.895 20.7643 573.784 25.4928 573.809H25.6564L42.9294 560.451L79.392 532.239L79.6232 532.418V502.236H79.6368Z" fill="white"/>
<path fill-rule="evenodd" clip-rule="evenodd" d="M79.6368 1147.24L79.392 1147.05L30.5532 1183.63L7.6355 1200.79V1200.95C7.66006 1205.68 9.54933 1210.21 12.8929 1213.55C16.2365 1216.9 20.7643 1218.78 25.4928 1218.81H25.6564L42.9294 1205.45L79.392 1177.24L79.6232 1177.42V1147.24H79.6368Z" fill="white"/>
</g>
<defs>
<clipPath id="clip0_1109_28363">
<rect width="86.3767" height="1727.64" fill="white" transform="translate(0.623291 0.236084)"/>
</clipPath>
</defs>
</svg>