<svg width="151" height="38" viewBox="0 0 151 38" fill="none" xmlns="http://www.w3.org/2000/svg">
<path d="M90.3253 36.7178C89.8107 36.7178 89.3933 36.5215 89.0716 36.13C88.074 34.9156 88.801 34.327 89.5366 33.3775L104.792 13.7025C104.994 13.4433 104.93 13.0617 104.698 12.8345C104.453 12.6215 104.087 12.6596 103.886 12.9192L102.5 14.7061H92.11C91.1772 14.7061 90.4618 14.3829 89.9639 13.7357C89.465 13.0888 89.2161 12.2376 89.2161 11.1821H107.351C107.897 11.1821 108.323 11.3525 108.629 11.6929C108.935 12.0333 109.087 12.4591 109.087 12.9695C109.087 13.446 108.942 13.8885 108.653 14.2975L94.7222 32.2001H92.2266C91.9095 32.2001 91.6503 32.4745 91.6503 32.8111C91.6503 33.1465 91.9095 33.4217 92.2266 33.4217H107.541C107.913 33.583 108.227 33.8304 108.484 34.1639C108.983 34.8111 109.232 35.6619 109.232 36.7178H90.3253Z" stroke="black" stroke-width="0.00179533" stroke-miterlimit="2.61313"/>
<path fill-rule="evenodd" clip-rule="evenodd" d="M90.3247 36.7172C89.8097 36.7172 89.3935 36.5217 89.0721 36.1302C88.0727 34.9146 88.8 34.3276 89.5375 33.3777L104.791 13.7008C104.993 13.4412 104.929 13.06 104.699 12.8336C104.451 12.6213 104.087 12.6582 103.887 12.9178L102.5 14.7063H92.1086C91.1774 14.7063 90.4627 14.3827 89.9641 13.7339C89.4655 13.0871 89.2162 12.2363 89.2162 11.1812H107.35C107.898 11.1812 108.322 11.3523 108.629 11.6923C108.934 12.032 109.087 12.4585 109.087 12.9697C109.087 13.4454 108.943 13.8883 108.652 14.2962L94.7212 32.1995H92.226C91.9089 32.1995 91.6493 32.4736 91.6493 32.8113C91.6493 33.1471 91.9089 33.4212 92.226 33.4212H107.54C107.912 33.5816 108.228 33.8309 108.485 34.1626C108.982 34.8098 109.231 35.6606 109.231 36.7172H90.3247Z" fill="black"/>
<path d="M129.582 14.9195C129.582 12.4624 130.936 11.2163 133.765 11.2163C133.754 12.1376 133.768 12.5943 133.774 12.9046C133.797 14.0607 136.62 11.036 142.159 11.2339C144.884 11.3307 147.041 12.0305 148.624 13.6242C150.207 15.2183 150.998 17.2767 150.998 19.8005V33.8447C150.998 34.941 150.636 35.7457 149.912 36.2607C149.188 36.7753 148.085 37.0329 146.604 37.0329V20.2488C146.604 18.6543 146.149 17.393 145.24 16.4629C144.331 15.5336 142.95 15.0685 141.098 15.0685C139.853 15.0685 138.682 15.3258 137.588 15.8408C136.494 16.3554 135.619 17.0526 134.962 17.9327C134.305 18.8121 133.977 19.767 133.977 20.7965V33.8447C133.977 34.941 133.615 35.7457 132.891 36.2607C132.167 36.7753 131.064 37.0329 129.582 37.0329V14.9195Z" stroke="black" stroke-width="0.00268061" stroke-miterlimit="2.61313"/>
<path d="M129.584 14.9193C129.584 12.4614 130.938 11.2153 133.766 11.2153C133.756 12.1382 133.771 12.5933 133.777 12.9047C133.799 14.0605 136.622 11.0358 142.162 11.2336C144.885 11.3305 147.044 12.0288 148.627 13.6236C150.209 15.2181 151 17.2761 151 19.7999V33.8445C151 34.9404 150.638 35.7459 149.914 36.2609C149.191 36.7762 148.087 37.0335 146.605 37.0335V20.2493C146.605 18.6545 146.15 17.3916 145.242 16.4627C144.333 15.5334 142.953 15.0679 141.101 15.0679C139.854 15.0679 138.684 15.3252 137.59 15.8402C136.496 16.3552 135.62 17.0516 134.963 17.9314C134.306 18.8111 133.979 19.7671 133.979 20.7952V33.8445C133.979 34.9404 133.616 35.7459 132.893 36.2609C132.17 36.7762 131.065 37.0335 129.584 37.0335V14.9193Z" fill="black"/>
<path d="M18.7102 32.4065C10.6014 32.4065 6.07444 25.7904 6.07444 19.0248C6.07444 12.2592 10.6014 5.64264 18.7102 5.64264C22.4909 5.64264 25.5255 7.08542 27.6647 9.3241C28.1125 9.77122 28.8085 9.87146 29.3559 9.52306L31.2462 8.27928C31.943 7.83139 32.0924 6.83689 31.4951 6.23958C28.3614 2.95608 23.8839 0.966309 18.7102 0.966309C8.41279 0.966309 1 8.82627 1 19.0248C1 29.2229 8.41279 37.0333 18.7102 37.0333C23.8839 37.0333 28.3614 35.0432 31.4951 31.8096C32.0924 31.2127 31.943 30.2178 31.2462 29.7703L29.3559 28.5265C28.8085 28.1289 28.1125 28.228 27.6647 28.7255C25.5255 30.9637 22.4909 32.4065 18.7102 32.4065Z" stroke="black" stroke-width="0.0034836" stroke-miterlimit="2.61313"/>
<path d="M18.7108 32.4055C10.6019 32.4055 6.07559 25.7901 6.07559 19.0245C6.07559 12.2589 10.6019 5.6416 18.7108 5.6416C22.4912 5.6416 25.5259 7.08552 27.6644 9.32305C28.1134 9.77018 28.8098 9.87119 29.3556 9.52279L31.247 8.27862C31.9435 7.83149 32.0917 6.83661 31.4944 6.23891C28.3607 2.95504 23.8839 0.966797 18.7108 0.966797C8.41391 0.966797 1.00134 8.82675 1.00134 19.0245C1.00134 29.2226 8.41391 37.0326 18.7108 37.0326C23.8839 37.0326 28.3607 35.0425 31.4944 31.8101C32.0917 31.2128 31.9435 30.2175 31.247 29.7704L29.3556 28.5262C28.8098 28.1286 28.1134 28.2274 27.6644 28.7259C25.5259 30.9635 22.4912 32.4055 18.7108 32.4055Z" fill="black"/>
<path d="M116.97 13.9134C116.97 13.0222 117.352 12.3296 118.115 11.8363C118.878 11.3427 119.962 11.0957 121.364 11.0957V34.2151C121.364 35.1063 120.983 35.7981 120.218 36.2925C119.455 36.7858 118.372 37.0332 116.97 37.0332V13.9134Z" stroke="black" stroke-width="0.00261162" stroke-miterlimit="2.61313"/>
<path d="M116.965 13.9133C116.965 13.0237 117.349 12.3314 118.111 11.8367C118.875 11.3446 119.957 11.0972 121.36 11.0972V34.2147C121.36 35.1066 120.978 35.7989 120.214 36.2933C119.452 36.7857 118.368 37.0331 116.965 37.0331V13.9133Z" fill="black"/>
<path d="M73.3237 37.0339C71.2798 37.0339 69.4292 36.6485 67.7707 35.8774C66.1121 35.107 64.8222 34.0599 63.9005 32.7365C62.9788 31.413 62.5184 29.9306 62.5184 28.2885V20.0466C62.5184 18.3713 62.9788 16.8462 63.9005 15.4728C64.8222 14.099 66.1034 13.01 67.7455 12.2057C69.3873 11.4018 71.2467 11 73.3237 11C75.4012 11 77.2693 11.4018 78.9278 12.2057C80.5864 13.01 81.8763 14.099 82.7976 15.4728C83.7189 16.8462 84.1798 18.3713 84.1798 20.0466V28.2885C84.1798 29.9306 83.7109 31.413 82.7724 32.7365C81.8343 34.0599 80.5444 35.107 78.9027 35.8774C77.2606 36.6485 75.4012 37.0339 73.3237 37.0339ZM73.3237 33.264C75.3344 33.264 76.9339 32.7868 78.1239 31.8316C79.3132 30.8767 79.9079 29.6287 79.9079 28.0876V20.1971C79.9079 19.2049 79.6811 18.3282 79.229 17.5659L80.8444 15.5067C80.9904 15.3203 80.9576 15.0489 80.7712 14.9022C80.5852 14.7562 80.3138 14.7889 80.1678 14.975L78.7022 16.8427C78.5284 16.6442 78.3351 16.4562 78.1239 16.2771C76.9339 15.2719 75.3344 14.7687 73.3237 14.7687C71.3469 14.7687 69.7559 15.2719 68.5494 16.2771C67.3434 17.2819 66.74 18.5889 66.74 20.1971V28.0876C66.74 29.185 67.0418 30.1338 67.6453 30.9339L66.0958 32.9084C65.9498 33.0948 65.9825 33.3662 66.1689 33.513C66.355 33.6589 66.6271 33.6262 66.7731 33.4398L68.2319 31.5804C68.3257 31.6661 68.4225 31.7504 68.5246 31.8316C69.7135 32.7868 71.3137 33.264 73.3237 33.264Z" stroke="#FF6600" stroke-width="0.000615476" stroke-miterlimit="2.61313"/>
<path fill-rule="evenodd" clip-rule="evenodd" d="M73.3241 37.0327C71.2802 37.0327 69.428 36.6474 67.7695 35.877C66.1114 35.1066 64.8215 34.0599 63.9005 32.7353C62.9777 31.4126 62.5184 29.9291 62.5184 28.2873V20.0466C62.5184 18.3717 62.9777 16.845 63.9005 15.4728C64.8215 14.0986 66.103 13.0088 67.7451 12.2053C69.3869 11.4018 71.2451 11 73.3241 11C75.4008 11 77.2693 11.4018 78.9278 12.2053C80.586 13.0088 81.8759 14.0986 82.7968 15.4728C83.7177 16.845 84.179 18.3717 84.179 20.0466V28.2873C84.179 29.9291 83.7094 31.4126 82.772 32.7353C81.8347 34.0599 80.5429 35.1066 78.903 35.877C77.2609 36.6474 75.4008 37.0327 73.3241 37.0327ZM73.3241 33.2625C75.3348 33.2625 76.9335 32.7868 78.122 31.8308C79.3128 30.8771 79.9063 29.6283 79.9063 28.0872V20.1968C79.9063 19.2038 79.6795 18.3282 79.2286 17.5658L80.8436 15.5059C80.99 15.3203 80.9569 15.0485 80.7716 14.9022C80.5841 14.7558 80.3123 14.7889 80.1678 14.9742L78.701 16.8427C78.528 16.643 78.3343 16.4555 78.122 16.2763C76.9335 15.2708 75.3348 14.7684 73.3241 14.7684C71.3461 14.7684 69.7559 15.2708 68.5483 16.2763C67.3434 17.2819 66.7396 18.5878 66.7396 20.1968V28.0872C66.7396 29.1835 67.0403 30.133 67.6441 30.9323L66.0946 32.9084C65.9486 33.0936 65.9814 33.3654 66.1689 33.5118C66.3542 33.6582 66.6264 33.625 66.7727 33.4397L68.2311 31.5796C68.326 31.6661 68.4229 31.7503 68.5239 31.8308C69.7124 32.7868 71.3134 33.2625 73.3241 33.2625Z" fill="#FF6600"/>
<path d="M47.1931 37.0339C45.1492 37.0339 43.2978 36.6485 41.6397 35.8774C39.9808 35.107 38.6909 34.0599 37.7699 32.7365C36.8482 31.413 36.3878 29.9306 36.3878 28.2885V20.0466C36.3878 18.3713 36.8482 16.8462 37.7699 15.4728C38.6909 14.099 39.9728 13.01 41.6145 12.2057C43.2559 11.4018 45.116 11 47.1931 11C49.2705 11 51.1379 11.4018 52.7965 12.2057C54.4554 13.01 55.7453 14.099 56.6666 15.4728C57.5883 16.8462 58.0491 18.3713 58.0491 20.0466V28.2885C58.0491 29.9306 57.5795 31.413 56.6418 32.7365C55.703 34.0599 54.4138 35.107 52.7717 35.8774C51.1299 36.6485 49.2705 37.0339 47.1931 37.0339ZM47.1931 33.264C49.2034 33.264 50.8033 32.7868 51.9926 31.8316C53.1818 30.8767 53.7772 29.6287 53.7772 28.0876V20.1971C53.7772 19.2049 53.5504 18.3282 53.098 17.5659L54.7138 15.5067C54.8598 15.3203 54.827 15.0489 54.6406 14.9022C54.4546 14.7562 54.1824 14.7889 54.0364 14.975L52.5712 16.8427C52.3974 16.6442 52.2045 16.4562 51.9926 16.2771C50.8033 15.2719 49.2034 14.7687 47.1931 14.7687C45.2163 14.7687 43.6249 15.2719 42.4184 16.2771C41.2127 17.2819 40.6093 18.5889 40.6093 20.1971V28.0876C40.6093 29.185 40.9112 30.1338 41.5139 30.9339L39.9651 32.9084C39.8188 33.0948 39.8519 33.3662 40.0383 33.513C40.2243 33.6589 40.4961 33.6262 40.6425 33.4398L42.1013 31.5804C42.1943 31.6661 42.2919 31.7504 42.3933 31.8316C43.5829 32.7868 45.1824 33.264 47.1931 33.264Z" stroke="#FF6600" stroke-width="0.000615476" stroke-miterlimit="2.61313"/>
<path fill-rule="evenodd" clip-rule="evenodd" d="M47.1928 37.0327C45.1489 37.0327 43.299 36.6474 41.6405 35.877C39.982 35.1066 38.6902 34.0599 37.7696 32.7353C36.8487 31.4126 36.3871 29.9291 36.3871 28.2873V20.0466C36.3871 18.3717 36.8487 16.845 37.7696 15.4728C38.6902 14.0986 39.974 13.0088 41.6138 12.2053C43.2556 11.4018 45.1161 11 47.1928 11C49.2714 11 51.138 11.4018 52.7965 12.2053C54.4551 13.0088 55.7446 14.0986 56.6674 15.4728C57.5884 16.845 58.05 18.3717 58.05 20.0466V28.2873C58.05 29.9291 57.5804 31.4126 56.643 32.7353C55.7034 34.0599 54.4139 35.1066 52.7718 35.877C51.1296 36.6474 49.2714 37.0327 47.1928 37.0327ZM47.1928 33.2625C49.2035 33.2625 50.8041 32.7868 51.993 31.8308C53.1819 30.8771 53.7773 29.6283 53.7773 28.0872V20.1968C53.7773 19.2038 53.5505 18.3282 53.0973 17.5658L54.7147 15.5059C54.8606 15.3203 54.8279 15.0485 54.6403 14.9022C54.4551 14.7558 54.1829 14.7889 54.0369 14.9742L52.572 16.8427C52.3967 16.643 52.2053 16.4555 51.993 16.2763C50.8041 15.2708 49.2035 14.7684 47.1928 14.7684C45.2171 14.7684 43.6246 15.2708 42.4193 16.2763C41.2121 17.2819 40.6106 18.5878 40.6106 20.1968V28.0872C40.6106 29.1835 40.9113 30.133 41.5147 30.9323L39.9656 32.9084C39.8192 33.0936 39.8524 33.3654 40.0377 33.5118C40.2252 33.6582 40.497 33.625 40.6434 33.4397L42.1021 31.5796C42.1948 31.6661 42.2916 31.7503 42.3926 31.8308C43.5834 32.7868 45.1821 33.2625 47.1928 33.2625Z" fill="#FF6600"/>
</svg>
