<svg width="18" height="16" viewBox="0 0 18 16" fill="none" xmlns="http://www.w3.org/2000/svg">
<path fill-rule="evenodd" clip-rule="evenodd" d="M0.599976 2.00005C0.599976 1.33731 1.13723 0.800049 1.79998 0.800049H16.2C16.8627 0.800049 17.4 1.33731 17.4 2.00005C17.4 2.66279 16.8627 3.20005 16.2 3.20005H1.79998C1.13723 3.20005 0.599976 2.66279 0.599976 2.00005Z" fill="#1F2937"/>
<path fill-rule="evenodd" clip-rule="evenodd" d="M0.599976 8.00005C0.599976 7.33731 1.13723 6.80005 1.79998 6.80005H16.2C16.8627 6.80005 17.4 7.33731 17.4 8.00005C17.4 8.66279 16.8627 9.20005 16.2 9.20005H1.79998C1.13723 9.20005 0.599976 8.66279 0.599976 8.00005Z" fill="#1F2937"/>
<path fill-rule="evenodd" clip-rule="evenodd" d="M0.599976 14C0.599976 13.3373 1.13723 12.8 1.79998 12.8H8.99998C9.66272 12.8 10.2 13.3373 10.2 14C10.2 14.6628 9.66272 15.2 8.99998 15.2H1.79998C1.13723 15.2 0.599976 14.6628 0.599976 14Z" fill="#1F2937"/>
</svg>
