<svg width="25" height="21" viewBox="0 0 25 21" fill="none" xmlns="http://www.w3.org/2000/svg">
<g clip-path="url(#clip0_997_27698)">
<path d="M24.955 11.331H18.9941C19.096 6.55831 20.3282 6.01654 21.8757 5.86191L22.4725 5.78063L22.4725 0.532541L21.7846 0.57304C19.7638 0.697948 17.5295 1.09818 16.0389 3.11977C14.7322 4.89195 14.1562 7.78722 14.1562 12.2317L14.1562 20.4674H24.955V11.331Z" fill="#1F2937"/>
<path d="M11.1757 20.4674L11.1757 11.331H5.29433C5.39623 6.55831 6.58857 6.01654 8.13616 5.86191L8.69323 5.78063V0.532541L8.04505 0.57304C6.02418 0.697948 3.76995 1.09818 2.27934 3.11977C0.972808 4.89195 0.376886 7.78722 0.376886 12.2317L0.376886 20.4674H11.1757Z" fill="#1F2937"/>
</g>
<defs>
<clipPath id="clip0_997_27698">
<rect width="24.5767" height="19.9349" fill="white" transform="matrix(-1 0 0 -1 24.955 20.4674)"/>
</clipPath>
</defs>
</svg>
